<svg width="183" height="42" viewBox="0 0 183 42" fill="none" xmlns="http://www.w3.org/2000/svg">
<path d="M74.825 14.05C74.1083 14.05 73.4667 14.1917 72.9 14.475C72.35 14.7583 71.8833 15.1667 71.5 15.7C71.1167 16.2167 70.825 16.85 70.625 17.6C70.4417 18.35 70.35 19.1917 70.35 20.125C70.35 21.3917 70.5 22.475 70.8 23.375C71.1167 24.2583 71.6083 24.9333 72.275 25.4C72.9417 25.8667 73.7917 26.1 74.825 26.1C75.5583 26.1 76.2833 26.0167 77 25.85C77.7333 25.6833 78.525 25.45 79.375 25.15V28.325C78.5917 28.6417 77.8167 28.875 77.05 29.025C76.2833 29.175 75.425 29.25 74.475 29.25C72.6417 29.25 71.125 28.875 69.925 28.125C68.7417 27.3583 67.8667 26.2917 67.3 24.925C66.7333 23.5417 66.45 21.9333 66.45 20.1C66.45 18.75 66.6333 17.5167 67 16.4C67.3667 15.2667 67.9 14.2917 68.6 13.475C69.3167 12.6583 70.1917 12.025 71.225 11.575C72.275 11.125 73.475 10.9 74.825 10.9C75.7083 10.9 76.5917 11.0167 77.475 11.25C78.375 11.4667 79.2333 11.7667 80.05 12.15L78.825 15.225C78.1583 14.9083 77.4833 14.6333 76.8 14.4C76.1333 14.1667 75.475 14.05 74.825 14.05ZM95.268 22.15C95.268 23.2833 95.1096 24.2917 94.793 25.175C94.493 26.0583 94.0513 26.8083 93.468 27.425C92.9013 28.025 92.2096 28.4833 91.393 28.8C90.5763 29.1 89.6513 29.25 88.618 29.25C87.668 29.25 86.7846 29.1 85.968 28.8C85.168 28.4833 84.4763 28.025 83.893 27.425C83.3096 26.8083 82.8513 26.0583 82.518 25.175C82.2013 24.2917 82.043 23.2833 82.043 22.15C82.043 20.6333 82.3096 19.3583 82.843 18.325C83.3763 17.275 84.143 16.475 85.143 15.925C86.143 15.375 87.3263 15.1 88.693 15.1C89.9763 15.1 91.1096 15.375 92.093 15.925C93.0763 16.475 93.8513 17.275 94.418 18.325C94.9846 19.3583 95.268 20.6333 95.268 22.15ZM85.843 22.15C85.843 23.05 85.9346 23.8083 86.118 24.425C86.318 25.025 86.6263 25.4833 87.043 25.8C87.4596 26.1 88.0013 26.25 88.668 26.25C89.3346 26.25 89.868 26.1 90.268 25.8C90.6846 25.4833 90.9846 25.025 91.168 24.425C91.368 23.8083 91.468 23.05 91.468 22.15C91.468 21.25 91.368 20.5 91.168 19.9C90.9846 19.3 90.6846 18.85 90.268 18.55C89.8513 18.25 89.3096 18.1 88.643 18.1C87.6596 18.1 86.943 18.4417 86.493 19.125C86.0596 19.7917 85.843 20.8 85.843 22.15ZM114.371 15.1C115.921 15.1 117.088 15.5 117.871 16.3C118.671 17.0833 119.071 18.35 119.071 20.1V29H115.346V21.025C115.346 20.0417 115.18 19.3083 114.846 18.825C114.513 18.325 113.996 18.075 113.296 18.075C112.313 18.075 111.613 18.425 111.196 19.125C110.78 19.825 110.571 20.8333 110.571 22.15V29H106.846V21.025C106.846 20.375 106.771 19.8333 106.621 19.4C106.471 18.9667 106.246 18.6417 105.946 18.425C105.646 18.1917 105.263 18.075 104.796 18.075C104.113 18.075 103.571 18.25 103.171 18.6C102.771 18.95 102.488 19.4583 102.321 20.125C102.155 20.7917 102.071 21.6083 102.071 22.575V29H98.3465V15.35H101.196L101.696 17.1H101.896C102.18 16.6333 102.53 16.2583 102.946 15.975C103.363 15.675 103.821 15.4583 104.321 15.325C104.838 15.175 105.355 15.1 105.871 15.1C106.871 15.1 107.721 15.2667 108.421 15.6C109.121 15.9167 109.655 16.4167 110.021 17.1H110.346C110.763 16.4 111.338 15.8917 112.071 15.575C112.821 15.2583 113.588 15.1 114.371 15.1ZM130.507 15.1C132.04 15.1 133.282 15.7 134.232 16.9C135.182 18.0833 135.657 19.8333 135.657 22.15C135.657 23.7 135.432 25.0083 134.982 26.075C134.532 27.125 133.915 27.9167 133.132 28.45C132.349 28.9833 131.44 29.25 130.407 29.25C129.757 29.25 129.19 29.1667 128.707 29C128.24 28.8333 127.84 28.6167 127.507 28.35C127.174 28.0833 126.882 27.8 126.632 27.5H126.432C126.499 27.8167 126.549 28.15 126.582 28.5C126.615 28.8333 126.632 29.1667 126.632 29.5V35H122.907V15.35H125.932L126.457 17.125H126.632C126.882 16.7583 127.182 16.425 127.532 16.125C127.882 15.8083 128.299 15.5583 128.782 15.375C129.282 15.1917 129.857 15.1 130.507 15.1ZM129.307 18.075C128.657 18.075 128.14 18.2083 127.757 18.475C127.374 18.7417 127.09 19.15 126.907 19.7C126.74 20.2333 126.649 20.9083 126.632 21.725V22.125C126.632 23.0083 126.715 23.7583 126.882 24.375C127.049 24.975 127.332 25.4333 127.732 25.75C128.132 26.0667 128.674 26.225 129.357 26.225C129.924 26.225 130.39 26.0667 130.757 25.75C131.124 25.4333 131.399 24.9667 131.582 24.35C131.765 23.7333 131.857 22.9833 131.857 22.1C131.857 20.7667 131.649 19.7667 131.232 19.1C130.832 18.4167 130.19 18.075 129.307 18.075ZM144.327 15.075C146.161 15.075 147.561 15.475 148.527 16.275C149.511 17.0583 150.002 18.2667 150.002 19.9V29H147.402L146.677 27.15H146.577C146.194 27.6333 145.794 28.0333 145.377 28.35C144.977 28.6667 144.511 28.8917 143.977 29.025C143.461 29.175 142.819 29.25 142.052 29.25C141.252 29.25 140.527 29.1 139.877 28.8C139.244 28.4833 138.744 28.0083 138.377 27.375C138.011 26.725 137.827 25.9083 137.827 24.925C137.827 23.475 138.336 22.4083 139.352 21.725C140.369 21.025 141.894 20.6417 143.927 20.575L146.302 20.5V19.9C146.302 19.1833 146.111 18.6583 145.727 18.325C145.361 17.9917 144.844 17.825 144.177 17.825C143.511 17.825 142.861 17.925 142.227 18.125C141.594 18.3083 140.961 18.5417 140.327 18.825L139.102 16.3C139.836 15.9167 140.644 15.6167 141.527 15.4C142.427 15.1833 143.361 15.075 144.327 15.075ZM144.852 22.725C143.652 22.7583 142.819 22.975 142.352 23.375C141.886 23.775 141.652 24.3 141.652 24.95C141.652 25.5167 141.819 25.925 142.152 26.175C142.486 26.4083 142.919 26.525 143.452 26.525C144.252 26.525 144.927 26.2917 145.477 25.825C146.027 25.3417 146.302 24.6667 146.302 23.8V22.675L144.852 22.725ZM161.565 15.1C163.032 15.1 164.207 15.5 165.09 16.3C165.974 17.0833 166.415 18.35 166.415 20.1V29H162.69V21.025C162.69 20.0417 162.515 19.3083 162.165 18.825C161.815 18.325 161.257 18.075 160.49 18.075C159.357 18.075 158.582 18.4667 158.165 19.25C157.749 20.0167 157.54 21.125 157.54 22.575V29H153.815V15.35H156.665L157.165 17.1H157.365C157.665 16.6333 158.032 16.2583 158.465 15.975C158.899 15.675 159.382 15.4583 159.915 15.325C160.449 15.175 160.999 15.1 161.565 15.1ZM168.296 15.35H172.371L174.946 23.025C175.029 23.275 175.096 23.525 175.146 23.775C175.213 24.025 175.263 24.2833 175.296 24.55C175.346 24.8167 175.379 25.1 175.396 25.4H175.471C175.521 24.9667 175.588 24.5583 175.671 24.175C175.771 23.775 175.879 23.3917 175.996 23.025L178.521 15.35H182.521L176.746 30.75C176.396 31.6833 175.938 32.4667 175.371 33.1C174.821 33.7333 174.179 34.2083 173.446 34.525C172.713 34.8417 171.913 35 171.046 35C170.629 35 170.263 34.975 169.946 34.925C169.646 34.8917 169.379 34.85 169.146 34.8V31.85C169.329 31.8833 169.546 31.9167 169.796 31.95C170.063 31.9833 170.338 32 170.621 32C171.138 32 171.579 31.8917 171.946 31.675C172.329 31.4583 172.646 31.1583 172.896 30.775C173.146 30.4083 173.346 30.0083 173.496 29.575L173.721 28.9L168.296 15.35Z" fill="#292930"/>
<circle cx="14.5" cy="19.5" r="14.5" fill="#6FDB5D"/>
<path d="M42.768 8C43.5378 6.66666 45.4622 6.66667 46.232 8L58.7894 29.75C59.5592 31.0833 58.597 32.75 57.0574 32.75H31.9426C30.403 32.75 29.4408 31.0833 30.2106 29.75L42.768 8Z" fill="#FFDC60"/>
</svg>
