<svg width="28" height="30" viewBox="0 0 28 30" fill="none" xmlns="http://www.w3.org/2000/svg">
<path d="M9.99878 2.88397C10.1002 0.949179 12.6182 0.274487 13.6734 1.89937L17.131 7.22368C17.6029 7.95035 18.4891 8.2905 19.326 8.06625L25.4582 6.42313C27.3296 5.92169 28.7494 8.10795 27.5301 9.61363L23.5349 14.5473C22.9896 15.2207 22.9399 16.1686 23.4118 16.8953L26.8695 22.2196C27.9247 23.8445 26.2842 25.8703 24.4754 25.176L18.5486 22.9009C17.7397 22.5904 16.8228 22.8361 16.2775 23.5094L12.2823 28.4432C11.063 29.9488 8.62933 29.0146 8.73073 27.0798L9.06298 20.74C9.10833 19.8748 8.59136 19.0787 7.78246 18.7682L1.85561 16.4931C0.046848 15.7988 0.18328 13.1955 2.05471 12.6941L8.1869 11.051C9.02383 10.8267 9.62118 10.089 9.66652 9.22378L9.99878 2.88397Z" fill="#5956E8"/>
</svg>
