<svg width="27" height="25" viewBox="0 0 27 25" fill="none" xmlns="http://www.w3.org/2000/svg">
<path d="M12.6095 0.927051C12.9088 0.00574028 14.2122 0.00573996 14.5116 0.927051L16.8296 8.06108C16.9635 8.4731 17.3474 8.75206 17.7806 8.75206H25.2818C26.2505 8.75206 26.6533 9.99168 25.8696 10.5611L19.801 14.9702C19.4505 15.2248 19.3039 15.6762 19.4377 16.0882L21.7557 23.2222C22.0551 24.1435 21.0006 24.9097 20.2169 24.3403L14.1483 19.9312C13.7978 19.6765 13.3232 19.6765 12.9727 19.9312L6.90418 24.3403C6.12047 24.9097 5.06599 24.1435 5.36534 23.2222L7.68332 16.0882C7.8172 15.6762 7.67054 15.2248 7.32005 14.9702L1.25148 10.5611C0.467771 9.99168 0.870547 8.75206 1.83927 8.75206H9.34043C9.77366 8.75206 10.1576 8.4731 10.2915 8.06108L12.6095 0.927051Z" fill="#FFB545"/>
</svg>
