<svg width="24" height="25" viewBox="0 0 24 25" fill="none" xmlns="http://www.w3.org/2000/svg">
<path d="M7.52644 12.6665C8.51252 14.7029 10.1591 16.3453 12.198 17.3261C12.3484 17.3973 12.5147 17.4282 12.6807 17.4156C12.8466 17.403 13.0064 17.3474 13.1443 17.2543L16.1389 15.2539C16.2712 15.1641 16.4241 15.1094 16.5833 15.0947C16.7425 15.0801 16.9028 15.106 17.0492 15.17L22.6551 17.5777C22.8467 17.6574 23.0068 17.7979 23.1107 17.9776C23.2146 18.1572 23.2565 18.366 23.2301 18.5719C23.0524 19.9587 22.3755 21.2332 21.326 22.157C20.2766 23.0808 18.9265 23.5905 17.5284 23.5908C13.2078 23.5908 9.06427 21.8745 6.00919 18.8194C2.95412 15.7643 1.23779 11.6208 1.23779 7.30024C1.23811 5.90212 1.74785 4.55202 2.67163 3.50256C3.59542 2.45311 4.86995 1.77621 6.25673 1.59853C6.46256 1.57209 6.67138 1.61405 6.85103 1.71794C7.03068 1.82183 7.17119 1.9819 7.25093 2.1735L9.65859 7.79135C9.7212 7.93551 9.74739 8.09285 9.73486 8.24952C9.72232 8.40618 9.67145 8.55736 9.58672 8.68973L7.58633 11.7322C7.49727 11.8698 7.445 12.028 7.43451 12.1916C7.42403 12.3552 7.45568 12.5187 7.52644 12.6665V12.6665Z" stroke="#3AD879" stroke-width="1.5" stroke-linecap="round" stroke-linejoin="round"/>
</svg>
