<svg width="18" height="24" viewBox="0 0 18 24" fill="none" xmlns="http://www.w3.org/2000/svg">
<path d="M2.23779 22.5908H17.2378" stroke="#FFDC60" stroke-width="1.5" stroke-linecap="round" stroke-linejoin="round"/>
<path d="M9.23779 12.5908C10.8946 12.5908 12.2378 11.2477 12.2378 9.59082C12.2378 7.93397 10.8946 6.59082 9.23779 6.59082C7.58094 6.59082 6.23779 7.93397 6.23779 9.59082C6.23779 11.2477 7.58094 12.5908 9.23779 12.5908Z" stroke="#FFDC60" stroke-width="1.5" stroke-linecap="round" stroke-linejoin="round"/>
<path d="M17.2378 9.66774C17.2378 16.937 9.23779 22.5908 9.23779 22.5908C9.23779 22.5908 1.23779 16.937 1.23779 9.66774C1.23779 7.52561 2.08065 5.47121 3.58094 3.9565C5.08123 2.44178 7.11606 1.59082 9.23779 1.59082C11.3595 1.59082 13.3944 2.44178 14.8946 3.9565C16.3949 5.47121 17.2378 7.52561 17.2378 9.66774V9.66774Z" stroke="#FFDC60" stroke-width="1.5" stroke-linecap="round" stroke-linejoin="round"/>
</svg>
