<svg version="1.1" id="Layer_1" xmlns="http://www.w3.org/2000/svg" xmlns:xlink="http://www.w3.org/1999/xlink" x="0px" y="0px"
	 width="100%" viewBox="0 0 609 80" enable-background="new 0 0 609 80" xml:space="preserve">
<path fill="#ffffff" opacity="1.000000" stroke="none" 
	d="
M610.000000,69.000000 
	C610.000000,72.997429 610.000000,76.994850 610.000000,80.950020 
	C407.000000,80.950020 203.999985,80.950020 1.000000,80.950020 
	C1.000000,61.579132 1.000000,42.258224 1.446956,22.315121 
	C7.478309,21.692926 13.062705,21.692926 19.001982,21.692926 
	C19.001982,36.648544 18.986126,50.609196 19.009914,64.569778 
	C19.019211,70.026482 20.069399,70.978012 25.824652,71.000320 
	C32.106827,71.024666 32.979656,70.270035 32.995586,64.454399 
	C33.027061,52.964607 33.003513,41.474670 33.002796,29.984795 
	C33.002632,27.403093 33.002773,24.821394 33.002773,21.999109 
	C37.622532,21.999109 41.450634,21.833473 45.258148,22.042603 
	C49.648754,22.283756 52.212650,21.160814 52.089848,16.039766 
	C51.975998,11.291993 49.751011,9.916886 45.388599,9.953581 
	C30.593315,10.078027 15.796333,10.000417 1.000000,10.000000 
	C1.000000,7.001936 1.000000,4.003873 1.000000,1.050392 
	C204.000000,1.050392 407.000000,1.050392 610.000000,1.050392 
	C610.000000,20.754749 610.000000,40.408718 609.617981,60.529213 
	C607.116394,61.166336 605.054016,57.392929 602.886047,60.903656 
	C601.268982,59.666523 598.345947,58.518791 598.254150,57.177246 
	C597.781189,50.269001 598.034851,43.311016 598.034851,35.801743 
	C601.362244,35.801743 604.081726,35.801743 606.743896,35.801743 
	C607.312622,27.496044 607.312622,27.496044 597.992737,25.172922 
	C597.992737,21.941622 598.541992,18.496862 597.792114,15.362967 
	C597.322510,13.400252 595.181580,11.264462 593.256775,10.412842 
	C591.838745,9.785450 589.387451,10.773823 587.692505,11.628849 
	C582.843872,14.074682 584.141357,18.746868 583.980591,22.881102 
	C583.830566,26.739346 580.318665,28.512587 576.850647,26.826672 
	C570.713318,23.843088 564.508728,21.850483 560.089661,26.951944 
	C556.425842,25.816868 553.186829,23.638166 551.179688,24.461731 
	C548.017700,25.759119 545.669495,28.652723 545.861267,33.216400 
	C546.301758,43.695660 545.971252,54.206196 546.013245,64.703804 
	C546.034973,70.149353 547.023438,70.994377 552.937927,71.000549 
	C558.926208,71.006798 559.940125,70.156372 559.987061,64.855659 
	C560.034302,59.523869 559.946228,54.190701 560.011597,48.859291 
	C560.113831,40.514523 562.735535,37.924442 570.707703,37.975719 
	C572.675476,37.988377 574.680603,37.877815 576.604980,37.499962 
	C578.903809,37.048576 581.134216,36.249138 584.062683,35.408623 
	C584.062683,44.676891 584.031433,52.651653 584.079163,60.625938 
	C584.096558,63.533730 588.992065,70.894539 591.415466,70.812996 
	C597.627686,70.603966 604.134827,72.790833 610.000000,69.000000 
M97.285477,43.295815 
	C97.414101,43.427292 97.542717,43.558769 97.150826,44.246914 
	C94.063217,45.705200 90.784653,46.867218 87.939217,48.701229 
	C84.802940,50.722710 83.645805,62.460796 85.940933,65.407516 
	C90.218163,70.899017 102.843246,72.722649 109.440781,69.841652 
	C111.108467,69.113403 113.034935,64.581444 116.191292,68.377037 
	C119.433395,72.275757 123.632378,71.261055 126.990967,70.540199 
	C126.990967,58.988899 127.254173,47.908207 126.808586,36.856098 
	C126.695145,34.042374 125.042061,30.043970 122.851959,28.824108 
	C118.491959,26.395632 113.280670,24.364210 108.397942,24.311512 
	C103.108772,24.254425 97.725586,26.419365 92.508820,28.023163 
	C87.597191,29.533152 85.714684,33.624149 87.068787,39.229782 
	C88.101952,43.506794 91.629570,43.113926 94.906876,42.995583 
	C95.571465,42.971584 96.235527,42.933025 97.285477,43.295815 
M318.296478,43.293251 
	C318.429016,43.424046 318.561584,43.554836 318.195099,44.269234 
	C307.257996,48.160110 305.210999,48.159584 305.956390,60.532982 
	C306.249817,65.403770 310.582123,70.772057 315.445007,70.921135 
	C322.460175,71.136208 329.762909,72.287926 335.852997,66.469101 
	C339.183899,72.067932 343.821442,71.616676 347.981293,70.557991 
	C347.981293,59.041397 348.368683,47.962559 347.761536,36.938492 
	C347.561401,33.304535 346.548370,28.595650 341.286499,27.607672 
	C339.104095,27.197905 336.758728,26.876020 334.867828,25.827955 
	C326.248169,21.050453 318.772186,25.792717 311.353149,28.819933 
	C306.785828,30.683563 307.594757,35.740391 308.172180,39.695915 
	C308.716644,43.425545 312.063599,43.079849 314.909668,42.999599 
	C315.906342,42.971493 316.902740,42.933788 318.296478,43.293251 
M179.015472,62.104713 
	C178.966187,46.728489 178.916901,31.352266 178.970016,15.371359 
	C178.663239,14.960553 178.356476,14.549747 177.375290,13.732512 
	C177.218964,9.883943 174.862091,8.641302 171.463562,9.045088 
	C168.006271,9.455852 165.158554,10.899502 165.034805,14.937693 
	C164.903656,19.217766 165.005341,23.504976 165.005341,27.058296 
	C158.548676,26.683392 152.665421,26.286512 146.775803,26.045441 
	C145.566772,25.995955 144.191437,26.265238 143.134476,26.835558 
	C134.568741,31.457491 133.040054,39.885845 132.122726,48.359863 
	C131.856949,50.815178 133.881241,53.455742 133.891479,56.015244 
	C133.923264,63.960358 139.380936,68.909340 145.290039,70.425034 
	C151.042648,71.900574 158.709869,73.720741 164.183228,66.887482 
	C167.072021,72.512238 171.939774,71.007568 176.550339,70.747253 
	C177.349625,68.347893 178.081879,66.149719 178.942856,63.499950 
	C178.942856,63.499950 178.867737,63.036411 179.015472,62.104713 
M287.221680,70.431007 
	C297.130157,72.233452 301.158966,71.435730 300.946106,59.492264 
	C300.842255,53.664249 301.246185,47.808941 300.811127,42.011700 
	C300.536743,38.355267 299.823944,34.402065 298.083405,31.260300 
	C295.263580,26.170429 281.148132,23.495136 276.237244,26.943163 
	C273.199066,29.076332 270.750885,28.406296 267.708038,27.392416 
	C260.994507,25.155464 254.229279,24.374323 247.815872,28.740152 
	C245.445221,24.360090 241.244568,26.113930 237.726929,26.265694 
	C236.766907,26.307112 235.155792,28.830126 235.131744,30.236317 
	C234.923813,42.392159 234.906754,54.555092 235.146667,66.709717 
	C235.175171,68.153603 236.865509,70.527954 238.162079,70.824486 
	C245.600159,72.525558 248.315201,70.364746 248.960983,62.750671 
	C249.143356,60.600449 248.901627,58.417130 249.019043,56.257946 
	C249.295975,51.165783 249.255875,45.998199 250.220490,41.031338 
	C250.587112,39.143559 253.175781,37.392929 255.152039,36.311031 
	C255.671585,36.026611 258.103729,38.242287 258.909332,39.718269 
	C259.987030,41.692791 260.810852,44.044899 260.906250,46.270752 
	C261.169861,52.422482 261.125366,58.596298 260.957703,64.754715 
	C260.831085,69.405769 262.930908,71.162689 267.445068,71.049072 
	C273.209015,70.903984 274.703796,69.817207 274.885101,63.972279 
	C275.091522,57.316311 275.038818,50.648712 274.945770,43.988308 
	C274.883514,39.534817 278.062500,36.679039 281.256744,36.400112 
	C285.052155,36.068687 285.174438,40.198002 285.015442,43.379387 
	C284.965607,44.376293 284.935242,45.383999 285.019714,46.376228 
	C285.677734,54.106140 283.257935,62.103657 287.221680,70.431007 
M436.998596,40.500992 
	C436.999451,43.499210 436.758423,46.521088 437.048950,49.490963 
	C437.762177,56.781311 441.586151,62.095985 447.191223,66.832024 
	C453.358337,72.042961 460.287292,70.790482 467.186981,71.009491 
	C476.119720,71.293037 483.106384,68.127426 488.200134,60.446636 
	C491.139771,56.013992 490.460388,51.395565 489.143463,47.269405 
	C488.668182,45.780186 483.741730,45.657093 480.819000,45.041035 
	C480.067902,44.882721 479.212402,45.219559 478.530945,45.311852 
	C478.098206,46.773003 477.790833,48.042469 477.349426,49.263474 
	C474.657990,56.708748 468.514648,60.328087 460.922852,58.976665 
	C456.355286,58.163601 449.926971,49.448284 450.105591,43.491371 
	C450.222626,39.588249 451.185455,35.683998 452.023193,31.835480 
	C453.151001,26.654367 459.690460,21.310387 464.788239,21.152298 
	C469.197784,21.015553 475.326111,25.632160 477.203003,30.446304 
	C478.993591,35.039032 483.040070,34.084064 486.520020,33.858929 
	C487.716553,33.781513 489.663300,32.309383 489.814056,31.264688 
	C490.540253,26.232235 490.028259,21.338385 486.011658,17.531673 
	C481.413208,13.173532 476.090485,10.894121 469.727661,9.581452 
	C459.914276,7.556922 448.373352,11.555075 442.204041,19.054312 
	C437.003296,25.376215 436.834137,32.223930 436.998596,40.500992 
M390.999664,21.574884 
	C390.999451,36.072266 390.896790,50.571236 391.121979,65.065125 
	C391.151886,66.989326 392.347198,69.815292 393.862030,70.634148 
	C399.792633,73.839996 404.975494,70.294838 404.999756,63.449184 
	C405.004486,62.116104 405.166565,60.757919 404.968964,59.454845 
	C404.477173,56.211739 406.014221,54.464069 409.071320,53.150364 
	C412.880157,59.187233 416.532349,64.975845 420.332672,70.999222 
	C421.607483,70.999222 423.103546,71.007965 424.599487,70.997643 
	C429.897430,70.961082 432.859833,67.176414 430.800446,62.256893 
	C429.239441,58.527863 426.641815,55.232239 424.500610,51.746750 
	C422.554688,48.579109 420.602203,45.415501 418.644928,42.237701 
	C420.432098,41.107716 421.854004,40.382870 423.062805,39.396782 
	C424.345703,38.350269 425.489777,37.111149 426.582581,35.858501 
	C429.183014,32.877743 428.478699,27.711348 425.287903,25.947029 
	C420.987396,23.569111 415.162262,25.846973 412.093933,30.733482 
	C410.420288,33.398861 408.174530,35.704998 406.186829,38.173153 
	C404.997772,30.297060 405.278595,23.010607 404.822296,15.770598 
	C404.689789,13.668140 402.858582,10.628909 401.067963,9.941354 
	C398.873810,9.098865 395.485992,9.537350 393.361847,10.741122 
	C389.566437,12.891986 391.299103,17.156561 390.999664,21.574884 
M500.787354,47.031857 
	C495.949097,50.522293 494.063782,59.640804 497.073975,64.991806 
	C500.298309,70.723434 514.084106,73.501518 520.137756,69.899719 
	C522.123901,68.718033 526.194824,67.273239 526.656982,67.901627 
	C529.939148,72.364510 534.207886,70.799896 538.570984,70.839424 
	C538.534058,68.031685 540.869690,66.337868 539.398865,62.685131 
	C537.352966,57.604000 537.528076,51.578121 537.057495,45.931213 
	C536.754578,42.296574 537.364990,38.565395 536.865051,34.975071 
	C536.552673,32.731018 535.471802,29.523245 533.803467,28.743959 
	C529.213623,26.600048 524.222717,24.841621 519.223267,24.163467 
	C512.487549,23.249779 506.107727,25.882130 500.575745,29.443340 
	C497.515076,31.413664 496.005219,35.463188 497.228638,39.346889 
	C497.693146,40.821434 499.682556,42.647903 501.140533,42.806126 
	C504.297882,43.148777 508.293640,44.366798 509.280273,38.998596 
	C509.499939,37.803551 511.805664,36.968380 513.183289,36.014271 
	C516.875427,33.457161 520.329224,34.713573 523.748779,36.734509 
	C523.748779,38.322403 523.748779,39.921211 523.748779,41.822151 
	C522.400452,41.889118 521.217407,41.756317 520.139526,42.033039 
	C513.943542,43.623741 507.772461,45.311485 500.787354,47.031857 
M219.386063,54.224018 
	C217.689011,55.970139 216.121674,57.870941 214.265549,59.427376 
	C211.217804,61.983047 207.460693,62.652660 204.079269,60.775494 
	C201.108994,59.126587 198.889389,56.342430 200.603195,52.001461 
	C207.744431,52.001461 214.913162,51.637314 222.022476,52.130215 
	C226.717316,52.455711 228.549255,49.823315 228.786697,46.364548 
	C229.024811,42.896236 228.439758,39.029133 227.030838,35.864162 
	C224.422043,30.003773 219.433853,27.665586 213.124939,25.429384 
	C204.508286,22.375202 198.134857,25.610231 192.116837,29.433523 
	C187.148727,32.589802 184.110870,38.577553 184.128922,44.910069 
	C184.141907,49.463028 184.655243,54.270351 186.197418,58.508629 
	C189.185959,66.721924 193.864288,70.303368 203.172531,70.950630 
	C207.316818,71.238815 211.501907,71.097931 215.662384,70.963501 
	C224.554733,70.676170 229.783966,62.233486 226.094650,54.020309 
	C224.162445,54.020309 222.168747,54.020309 219.386063,54.224018 
M84.979332,35.225391 
	C84.968758,32.036160 86.040627,27.851341 82.367699,26.564438 
	C77.114449,24.723820 71.102196,20.761908 67.003632,28.281750 
	C65.056885,27.135633 63.443130,26.605721 62.437611,25.515055 
	C59.381901,22.200583 56.596558,23.908831 54.709988,26.326193 
	C53.180859,28.285561 52.229607,31.158653 52.118450,33.674908 
	C51.788498,41.144188 51.812843,48.643745 52.066093,56.119015 
	C52.234367,61.085869 53.032482,66.031380 53.531296,70.819702 
	C55.757702,70.920853 56.589146,70.930328 57.415413,71.000618 
	C64.615883,71.613083 66.085022,69.753433 66.139740,62.386574 
	C66.190582,55.541012 67.210754,48.679581 68.154785,41.873772 
	C68.604950,38.628456 70.545639,37.385662 74.322838,37.767872 
	C77.758240,38.115498 81.368874,36.731384 84.979332,35.225391 
M381.615265,38.002926 
	C384.572083,38.040379 387.853546,38.622623 388.894440,34.670116 
	C389.835785,31.095528 388.528564,27.997030 385.421539,26.377567 
	C379.740936,23.416676 373.932251,22.519575 369.996704,26.915510 
	C366.421234,25.801165 363.504822,23.918232 361.128265,24.449602 
	C359.107513,24.901417 356.338593,28.084763 356.261139,30.148197 
	C355.812469,42.097839 355.801178,54.082321 356.193024,66.036949 
	C356.375183,71.595238 361.041504,71.174828 365.078339,71.011490 
	C368.869873,70.858055 370.056061,68.645569 370.014618,65.224251 
	C369.958221,60.571014 370.285889,55.894798 369.931641,51.268028 
	C369.460297,45.111729 371.206940,40.097240 375.353577,36.722374 
	C377.560089,37.243607 379.163849,37.622448 381.615265,38.002926 
z"/>
<path fill="#0051C9" opacity="1.000000" stroke="none" 
	d="
M610.000000,68.555832 
	C604.134827,72.790833 597.627686,70.603966 591.415466,70.812996 
	C588.992065,70.894539 584.096558,63.533730 584.079163,60.625938 
	C584.031433,52.651653 584.062683,44.676891 584.062683,35.408623 
	C581.134216,36.249138 578.903809,37.048576 576.604980,37.499962 
	C574.680603,37.877815 572.675476,37.988377 570.707703,37.975719 
	C562.735535,37.924442 560.113831,40.514523 560.011597,48.859291 
	C559.946228,54.190701 560.034302,59.523869 559.987061,64.855659 
	C559.940125,70.156372 558.926208,71.006798 552.937927,71.000549 
	C547.023438,70.994377 546.034973,70.149353 546.013245,64.703804 
	C545.971252,54.206196 546.301758,43.695660 545.861267,33.216400 
	C545.669495,28.652723 548.017700,25.759119 551.179688,24.461731 
	C553.186829,23.638166 556.425842,25.816868 560.089661,26.951944 
	C564.508728,21.850483 570.713318,23.843088 576.850647,26.826672 
	C580.318665,28.512587 583.830566,26.739346 583.980591,22.881102 
	C584.141357,18.746868 582.843872,14.074682 587.692505,11.628849 
	C589.387451,10.773823 591.838745,9.785450 593.256775,10.412842 
	C595.181580,11.264462 597.322510,13.400252 597.792114,15.362967 
	C598.541992,18.496862 597.992737,21.941622 597.992737,25.172922 
	C607.312622,27.496044 607.312622,27.496044 606.743896,35.801743 
	C604.081726,35.801743 601.362244,35.801743 598.034851,35.801743 
	C598.034851,43.311016 597.781189,50.269001 598.254150,57.177246 
	C598.345947,58.518791 601.268982,59.666523 602.886047,60.903656 
	C605.054016,57.392929 607.116394,61.166336 609.617981,60.997871 
	C610.000000,63.370556 610.000000,65.741112 610.000000,68.555832 
z"/>
<path fill="#0051CA" opacity="1.000000" stroke="none" 
	d="
M1.000000,10.460636 
	C15.796333,10.000417 30.593315,10.078027 45.388599,9.953581 
	C49.751011,9.916886 51.975998,11.291993 52.089848,16.039766 
	C52.212650,21.160814 49.648754,22.283756 45.258148,22.042603 
	C41.450634,21.833473 37.622532,21.999109 33.002773,21.999109 
	C33.002773,24.821394 33.002632,27.403093 33.002796,29.984795 
	C33.003513,41.474670 33.027061,52.964607 32.995586,64.454399 
	C32.979656,70.270035 32.106827,71.024666 25.824652,71.000320 
	C20.069399,70.978012 19.019211,70.026482 19.009914,64.569778 
	C18.986126,50.609196 19.001982,36.648544 19.001982,21.692926 
	C13.062705,21.692926 7.478309,21.692926 1.446956,21.846462 
	C1.000000,18.307091 1.000000,14.614182 1.000000,10.460636 
z"/>
<path fill="#0051C9" opacity="1.000000" stroke="none" 
	d="
M287.122681,69.997231 
	C283.257935,62.103657 285.677734,54.106140 285.019714,46.376228 
	C284.935242,45.383999 284.965607,44.376293 285.015442,43.379387 
	C285.174438,40.198002 285.052155,36.068687 281.256744,36.400112 
	C278.062500,36.679039 274.883514,39.534817 274.945770,43.988308 
	C275.038818,50.648712 275.091522,57.316311 274.885101,63.972279 
	C274.703796,69.817207 273.209015,70.903984 267.445068,71.049072 
	C262.930908,71.162689 260.831085,69.405769 260.957703,64.754715 
	C261.125366,58.596298 261.169861,52.422482 260.906250,46.270752 
	C260.810852,44.044899 259.987030,41.692791 258.909332,39.718269 
	C258.103729,38.242287 255.671585,36.026611 255.152039,36.311031 
	C253.175781,37.392929 250.587112,39.143559 250.220490,41.031338 
	C249.255875,45.998199 249.295975,51.165783 249.019043,56.257946 
	C248.901627,58.417130 249.143356,60.600449 248.960983,62.750671 
	C248.315201,70.364746 245.600159,72.525558 238.162079,70.824486 
	C236.865509,70.527954 235.175171,68.153603 235.146667,66.709717 
	C234.906754,54.555092 234.923813,42.392159 235.131744,30.236317 
	C235.155792,28.830126 236.766907,26.307112 237.726929,26.265694 
	C241.244568,26.113930 245.445221,24.360090 247.815872,28.740152 
	C254.229279,24.374323 260.994507,25.155464 267.708038,27.392416 
	C270.750885,28.406296 273.199066,29.076332 276.237244,26.943163 
	C281.148132,23.495136 295.263580,26.170429 298.083405,31.260300 
	C299.823944,34.402065 300.536743,38.355267 300.811127,42.011700 
	C301.246185,47.808941 300.842255,53.664249 300.946106,59.492264 
	C301.158966,71.435730 297.130157,72.233452 287.122681,69.997231 
z"/>
<path fill="#0050C9" opacity="1.000000" stroke="none" 
	d="
M436.998627,40.008270 
	C436.834137,32.223930 437.003296,25.376215 442.204041,19.054312 
	C448.373352,11.555075 459.914276,7.556922 469.727661,9.581452 
	C476.090485,10.894121 481.413208,13.173532 486.011658,17.531673 
	C490.028259,21.338385 490.540253,26.232235 489.814056,31.264688 
	C489.663300,32.309383 487.716553,33.781513 486.520020,33.858929 
	C483.040070,34.084064 478.993591,35.039032 477.203003,30.446304 
	C475.326111,25.632160 469.197784,21.015553 464.788239,21.152298 
	C459.690460,21.310387 453.151001,26.654367 452.023193,31.835480 
	C451.185455,35.683998 450.222626,39.588249 450.105591,43.491371 
	C449.926971,49.448284 456.355286,58.163601 460.922852,58.976665 
	C468.514648,60.328087 474.657990,56.708748 477.349426,49.263474 
	C477.790833,48.042469 478.098206,46.773003 478.530945,45.311852 
	C479.212402,45.219559 480.067902,44.882721 480.819000,45.041035 
	C483.741730,45.657093 488.668182,45.780186 489.143463,47.269405 
	C490.460388,51.395565 491.139771,56.013992 488.200134,60.446636 
	C483.106384,68.127426 476.119720,71.293037 467.186981,71.009491 
	C460.287292,70.790482 453.358337,72.042961 447.191223,66.832024 
	C441.586151,62.095985 437.762177,56.781311 437.048950,49.490963 
	C436.758423,46.521088 436.999451,43.499210 436.998627,40.008270 
z"/>
<path fill="#0051CA" opacity="1.000000" stroke="none" 
	d="
M178.867615,15.976046 
	C178.916901,31.352266 178.966187,46.728489 178.953705,62.685570 
	C178.889694,63.498257 178.863770,63.726631 178.814133,63.951553 
	C178.081879,66.149719 177.349625,68.347893 176.550339,70.747253 
	C171.939774,71.007568 167.072021,72.512238 164.183228,66.887482 
	C158.709869,73.720741 151.042648,71.900574 145.290039,70.425034 
	C139.380936,68.909340 133.923264,63.960358 133.891479,56.015244 
	C133.881241,53.455742 131.856949,50.815178 132.122726,48.359863 
	C133.040054,39.885845 134.568741,31.457491 143.134476,26.835558 
	C144.191437,26.265238 145.566772,25.995955 146.775803,26.045441 
	C152.665421,26.286512 158.548676,26.683392 165.005341,27.058296 
	C165.005341,23.504976 164.903656,19.217766 165.034805,14.937693 
	C165.158554,10.899502 168.006271,9.455852 171.463562,9.045088 
	C174.862091,8.641302 177.218964,9.883943 177.781433,14.178598 
	C178.414246,15.075140 178.640930,15.525594 178.867615,15.976046 
M156.292007,60.978363 
	C162.569809,56.699188 165.356064,48.510727 162.839813,41.735107 
	C161.458420,38.015381 155.522049,35.565952 152.306671,37.169918 
	C147.438477,39.598373 146.116241,44.539917 146.355957,48.726959 
	C146.663681,54.102009 149.195480,59.356709 156.292007,60.978363 
z"/>
<path fill="#0051CA" opacity="1.000000" stroke="none" 
	d="
M390.999664,21.087772 
	C391.299103,17.156561 389.566437,12.891986 393.361847,10.741122 
	C395.485992,9.537350 398.873810,9.098865 401.067963,9.941354 
	C402.858582,10.628909 404.689789,13.668140 404.822296,15.770598 
	C405.278595,23.010607 404.997772,30.297060 406.186829,38.173153 
	C408.174530,35.704998 410.420288,33.398861 412.093933,30.733482 
	C415.162262,25.846973 420.987396,23.569111 425.287903,25.947029 
	C428.478699,27.711348 429.183014,32.877743 426.582581,35.858501 
	C425.489777,37.111149 424.345703,38.350269 423.062805,39.396782 
	C421.854004,40.382870 420.432098,41.107716 418.644928,42.237701 
	C420.602203,45.415501 422.554688,48.579109 424.500610,51.746750 
	C426.641815,55.232239 429.239441,58.527863 430.800446,62.256893 
	C432.859833,67.176414 429.897430,70.961082 424.599487,70.997643 
	C423.103546,71.007965 421.607483,70.999222 420.332672,70.999222 
	C416.532349,64.975845 412.880157,59.187233 409.071320,53.150364 
	C406.014221,54.464069 404.477173,56.211739 404.968964,59.454845 
	C405.166565,60.757919 405.004486,62.116104 404.999756,63.449184 
	C404.975494,70.294838 399.792633,73.839996 393.862030,70.634148 
	C392.347198,69.815292 391.151886,66.989326 391.121979,65.065125 
	C390.896790,50.571236 390.999451,36.072266 390.999664,21.087772 
z"/>
<path fill="#0051C9" opacity="1.000000" stroke="none" 
	d="
M317.899261,42.900467 
	C316.902740,42.933788 315.906342,42.971493 314.909668,42.999599 
	C312.063599,43.079849 308.716644,43.425545 308.172180,39.695915 
	C307.594757,35.740391 306.785828,30.683563 311.353149,28.819933 
	C318.772186,25.792717 326.248169,21.050453 334.867828,25.827955 
	C336.758728,26.876020 339.104095,27.197905 341.286499,27.607672 
	C346.548370,28.595650 347.561401,33.304535 347.761536,36.938492 
	C348.368683,47.962559 347.981293,59.041397 347.981293,70.557991 
	C343.821442,71.616676 339.183899,72.067932 335.852997,66.469101 
	C329.762909,72.287926 322.460175,71.136208 315.445007,70.921135 
	C310.582123,70.772057 306.249817,65.403770 305.956390,60.532982 
	C305.210999,48.159584 307.257996,48.160110 318.782166,43.731339 
	C324.189453,42.705162 329.009613,42.216885 333.629669,41.748882 
	C335.197021,36.353027 330.398865,35.752987 328.020905,34.427555 
	C325.185150,32.846947 318.853699,38.638245 317.899261,42.900467 
M332.142761,57.521980 
	C332.960754,55.679699 333.778748,53.837418 335.145752,50.758625 
	C329.916565,52.115910 326.237518,52.750984 322.852478,54.115456 
	C321.594299,54.622608 319.967957,57.373302 320.366608,58.160397 
	C321.137634,59.682842 323.354675,61.602245 324.741486,61.435596 
	C327.212708,61.138622 329.512268,59.413181 332.142761,57.521980 
z"/>
<path fill="#0051C9" opacity="1.000000" stroke="none" 
	d="
M96.899834,42.901176 
	C96.235527,42.933025 95.571465,42.971584 94.906876,42.995583 
	C91.629570,43.113926 88.101952,43.506794 87.068787,39.229782 
	C85.714684,33.624149 87.597191,29.533152 92.508820,28.023163 
	C97.725586,26.419365 103.108772,24.254425 108.397942,24.311512 
	C113.280670,24.364210 118.491959,26.395632 122.851959,28.824108 
	C125.042061,30.043970 126.695145,34.042374 126.808586,36.856098 
	C127.254173,47.908207 126.990967,58.988899 126.990967,70.540199 
	C123.632378,71.261055 119.433395,72.275757 116.191292,68.377037 
	C113.034935,64.581444 111.108467,69.113403 109.440781,69.841652 
	C102.843246,72.722649 90.218163,70.899017 85.940933,65.407516 
	C83.645805,62.460796 84.802940,50.722710 87.939217,48.701229 
	C90.784653,46.867218 94.063217,45.705200 97.754166,43.727882 
	C103.183311,42.711411 108.009125,42.213966 112.634369,41.737198 
	C114.178596,36.315426 109.385765,35.646492 106.980560,34.433380 
	C103.915741,32.887581 97.891449,38.484085 96.899834,42.901176 
M109.604668,59.205002 
	C112.330055,57.311836 113.988754,55.010281 112.415382,51.203510 
	C108.870544,52.112103 105.188133,52.780415 101.748169,54.087044 
	C100.543343,54.544689 98.972794,56.877159 99.269867,57.814590 
	C99.769058,59.389870 101.521645,61.469608 102.942596,61.632732 
	C104.909012,61.858482 107.056686,60.505299 109.604668,59.205002 
z"/>
<path fill="#0051C9" opacity="1.000000" stroke="none" 
	d="
M501.190125,46.999092 
	C507.772461,45.311485 513.943542,43.623741 520.139526,42.033039 
	C521.217407,41.756317 522.400452,41.889118 523.748779,41.822151 
	C523.748779,39.921211 523.748779,38.322403 523.748779,36.734509 
	C520.329224,34.713573 516.875427,33.457161 513.183289,36.014271 
	C511.805664,36.968380 509.499939,37.803551 509.280273,38.998596 
	C508.293640,44.366798 504.297882,43.148777 501.140533,42.806126 
	C499.682556,42.647903 497.693146,40.821434 497.228638,39.346889 
	C496.005219,35.463188 497.515076,31.413664 500.575745,29.443340 
	C506.107727,25.882130 512.487549,23.249779 519.223267,24.163467 
	C524.222717,24.841621 529.213623,26.600048 533.803467,28.743959 
	C535.471802,29.523245 536.552673,32.731018 536.865051,34.975071 
	C537.364990,38.565395 536.754578,42.296574 537.057495,45.931213 
	C537.528076,51.578121 537.352966,57.604000 539.398865,62.685131 
	C540.869690,66.337868 538.534058,68.031685 538.570984,70.839424 
	C534.207886,70.799896 529.939148,72.364510 526.656982,67.901627 
	C526.194824,67.273239 522.123901,68.718033 520.137756,69.899719 
	C514.084106,73.501518 500.298309,70.723434 497.073975,64.991806 
	C494.063782,59.640804 495.949097,50.522293 501.190125,46.999092 
M523.998840,54.531841 
	C524.237000,53.167103 524.475220,51.802364 524.743530,50.265434 
	C523.059265,50.931927 521.730713,51.577003 520.332947,51.984566 
	C517.863831,52.704460 515.208801,52.967285 512.909729,54.025642 
	C511.385834,54.727161 510.346558,56.481384 509.090302,57.764332 
	C510.812744,59.022964 512.436035,61.158134 514.277283,61.366539 
	C518.775879,61.875702 521.948303,59.268799 523.998840,54.531841 
z"/>
<path fill="#0051C9" opacity="1.000000" stroke="none" 
	d="
M219.780563,54.122162 
	C222.168747,54.020309 224.162445,54.020309 226.094650,54.020309 
	C229.783966,62.233486 224.554733,70.676170 215.662384,70.963501 
	C211.501907,71.097931 207.316818,71.238815 203.172531,70.950630 
	C193.864288,70.303368 189.185959,66.721924 186.197418,58.508629 
	C184.655243,54.270351 184.141907,49.463028 184.128922,44.910069 
	C184.110870,38.577553 187.148727,32.589802 192.116837,29.433523 
	C198.134857,25.610231 204.508286,22.375202 213.124939,25.429384 
	C219.433853,27.665586 224.422043,30.003773 227.030838,35.864162 
	C228.439758,39.029133 229.024811,42.896236 228.786697,46.364548 
	C228.549255,49.823315 226.717316,52.455711 222.022476,52.130215 
	C214.913162,51.637314 207.744431,52.001461 200.603195,52.001461 
	C198.889389,56.342430 201.108994,59.126587 204.079269,60.775494 
	C207.460693,62.652660 211.217804,61.983047 214.265549,59.427376 
	C216.121674,57.870941 217.689011,55.970139 219.780563,54.122162 
M215.449615,41.212135 
	C214.934113,40.461407 214.565323,39.515972 213.875717,38.996265 
	C211.763947,37.404785 208.740845,34.255207 207.497253,34.824516 
	C204.399994,36.242428 199.459763,37.169182 200.421219,43.429996 
	C205.604111,42.934410 210.694962,42.447620 215.449615,41.212135 
z"/>
<path fill="#0051CA" opacity="1.000000" stroke="none" 
	d="
M84.940796,35.668022 
	C81.368874,36.731384 77.758240,38.115498 74.322838,37.767872 
	C70.545639,37.385662 68.604950,38.628456 68.154785,41.873772 
	C67.210754,48.679581 66.190582,55.541012 66.139740,62.386574 
	C66.085022,69.753433 64.615883,71.613083 57.415413,71.000618 
	C56.589146,70.930328 55.757702,70.920853 53.531296,70.819702 
	C53.032482,66.031380 52.234367,61.085869 52.066093,56.119015 
	C51.812843,48.643745 51.788498,41.144188 52.118450,33.674908 
	C52.229607,31.158653 53.180859,28.285561 54.709988,26.326193 
	C56.596558,23.908831 59.381901,22.200583 62.437611,25.515055 
	C63.443130,26.605721 65.056885,27.135633 67.003632,28.281750 
	C71.102196,20.761908 77.114449,24.723820 82.367699,26.564438 
	C86.040627,27.851341 84.968758,32.036160 84.940796,35.668022 
z"/>
<path fill="#0050C9" opacity="1.000000" stroke="none" 
	d="
M381.191406,38.002110 
	C379.163849,37.622448 377.560089,37.243607 375.353577,36.722374 
	C371.206940,40.097240 369.460297,45.111729 369.931641,51.268028 
	C370.285889,55.894798 369.958221,60.571014 370.014618,65.224251 
	C370.056061,68.645569 368.869873,70.858055 365.078339,71.011490 
	C361.041504,71.174828 356.375183,71.595238 356.193024,66.036949 
	C355.801178,54.082321 355.812469,42.097839 356.261139,30.148197 
	C356.338593,28.084763 359.107513,24.901417 361.128265,24.449602 
	C363.504822,23.918232 366.421234,25.801165 369.996704,26.915510 
	C373.932251,22.519575 379.740936,23.416676 385.421539,26.377567 
	C388.528564,27.997030 389.835785,31.095528 388.894440,34.670116 
	C387.853546,38.622623 384.572083,38.040379 381.191406,38.002110 
z"/>
<path fill="#005EE0" opacity="1.000000" stroke="none" 
	d="
M178.918808,15.673703 
	C178.640930,15.525594 178.414246,15.075140 178.118622,14.381813 
	C178.356476,14.549747 178.663239,14.960553 178.918808,15.673703 
z"/>
<path fill="#005EE0" opacity="1.000000" stroke="none" 
	d="
M178.878494,63.725754 
	C178.863770,63.726631 178.889694,63.498257 178.879822,63.151421 
	C178.867737,63.036411 178.942856,63.499950 178.878494,63.725754 
z"/>
<path fill="#000000" opacity="1.000000" stroke="none" 
	d="
M155.904724,60.984825 
	C149.195480,59.356709 146.663681,54.102009 146.355957,48.726959 
	C146.116241,44.539917 147.438477,39.598373 152.306671,37.169918 
	C155.522049,35.565952 161.458420,38.015381 162.839813,41.735107 
	C165.356064,48.510727 162.569809,56.699188 155.904724,60.984825 
z"/>
<path fill="#000000" opacity="1.000000" stroke="none" 
	d="
M332.013184,57.903553 
	C329.512268,59.413181 327.212708,61.138622 324.741486,61.435596 
	C323.354675,61.602245 321.137634,59.682842 320.366608,58.160397 
	C319.967957,57.373302 321.594299,54.622608 322.852478,54.115456 
	C326.237518,52.750984 329.916565,52.115910 335.145752,50.758625 
	C333.778748,53.837418 332.960754,55.679699 332.013184,57.903553 
z"/>
<path fill="#000000" opacity="1.000000" stroke="none" 
	d="
M318.097870,43.096859 
	C318.853699,38.638245 325.185150,32.846947 328.020905,34.427555 
	C330.398865,35.752987 335.197021,36.353027 333.629669,41.748882 
	C329.009613,42.216885 324.189453,42.705162 319.031677,43.439533 
	C318.561584,43.554836 318.429016,43.424046 318.097870,43.096859 
z"/>
<path fill="#000000" opacity="1.000000" stroke="none" 
	d="
M109.365707,59.516624 
	C107.056686,60.505299 104.909012,61.858482 102.942596,61.632732 
	C101.521645,61.469608 99.769058,59.389870 99.269867,57.814590 
	C98.972794,56.877159 100.543343,54.544689 101.748169,54.087044 
	C105.188133,52.780415 108.870544,52.112103 112.415382,51.203510 
	C113.988754,55.010281 112.330055,57.311836 109.365707,59.516624 
z"/>
<path fill="#000000" opacity="1.000000" stroke="none" 
	d="
M97.092651,43.098495 
	C97.891449,38.484085 103.915741,32.887581 106.980560,34.433380 
	C109.385765,35.646492 114.178596,36.315426 112.634369,41.737198 
	C108.009125,42.213966 103.183311,42.711411 98.014420,43.449547 
	C97.542717,43.558769 97.414101,43.427292 97.092651,43.098495 
z"/>
<path fill="#000000" opacity="1.000000" stroke="none" 
	d="
M523.989075,54.918167 
	C521.948303,59.268799 518.775879,61.875702 514.277283,61.366539 
	C512.436035,61.158134 510.812744,59.022964 509.090302,57.764343 
	C510.346558,56.481384 511.385834,54.727161 512.909729,54.025642 
	C515.208801,52.967285 517.863831,52.704460 520.332947,51.984566 
	C521.730713,51.577003 523.059265,50.931927 524.743530,50.265434 
	C524.475220,51.802364 524.237000,53.167103 523.989075,54.918167 
z"/>
<path fill="#000000" opacity="1.000000" stroke="none" 
	d="
M215.617706,41.586487 
	C210.694962,42.447620 205.604111,42.934410 200.421219,43.429996 
	C199.459763,37.169182 204.399994,36.242428 207.497253,34.824516 
	C208.740845,34.255207 211.763947,37.404785 213.875717,38.996265 
	C214.565323,39.515972 214.934113,40.461407 215.617706,41.586487 
z"/>
</svg>